<?xml version="1.0" encoding="UTF-8"?>
<!DOCTYPE svg PUBLIC "-//W3C//DTD SVG 1.1//EN" "http://www.w3.org/Graphics/SVG/1.1/DTD/svg11.dtd">
<svg xmlns="http://www.w3.org/2000/svg" version="1.1" width="318px" height="129px" style="shape-rendering:geometricPrecision; text-rendering:geometricPrecision; image-rendering:optimizeQuality; fill-rule:evenodd; clip-rule:evenodd" xmlns:xlink="http://www.w3.org/1999/xlink">
<g><path style="opacity:1" fill="#ae4ce1" d="M -0.5,-0.5 C 59.1667,-0.5 118.833,-0.5 178.5,-0.5C 178.5,42.5 178.5,85.5 178.5,128.5C 170.5,128.5 162.5,128.5 154.5,128.5C 154.5,93.1667 154.5,57.8333 154.5,22.5C 102.833,22.5 51.1667,22.5 -0.5,22.5C -0.5,14.8333 -0.5,7.16667 -0.5,-0.5 Z"/></g>
<g><path style="opacity:1" fill="#fdfbfd" d="M 178.5,-0.5 C 183.833,-0.5 189.167,-0.5 194.5,-0.5C 194.5,7.16667 194.5,14.8333 194.5,22.5C 235.5,22.5 276.5,22.5 317.5,22.5C 317.5,27.1667 317.5,31.8333 317.5,36.5C 276.499,36.3333 235.499,36.5 194.5,37C 193.518,45.081 193.184,53.2476 193.5,61.5C 234.487,63.4944 275.82,64.1611 317.5,63.5C 317.5,68.1667 317.5,72.8333 317.5,77.5C 276.5,77.5 235.5,77.5 194.5,77.5C 193.507,85.9839 193.174,94.6506 193.5,103.5C 234.833,103.5 276.167,103.5 317.5,103.5C 317.5,108.167 317.5,112.833 317.5,117.5C 276.5,117.5 235.5,117.5 194.5,117.5C 194.5,121.167 194.5,124.833 194.5,128.5C 189.167,128.5 183.833,128.5 178.5,128.5C 178.5,85.5 178.5,42.5 178.5,-0.5 Z"/></g>
<g><path style="opacity:1" fill="#2e073f" d="M 195.5,-0.5 C 236.167,-0.5 276.833,-0.5 317.5,-0.5C 317.5,6.83333 317.5,14.1667 317.5,21.5C 276.833,21.5 236.167,21.5 195.5,21.5C 195.5,14.1667 195.5,6.83333 195.5,-0.5 Z"/></g>
<g><path style="opacity:1" fill="#654972" d="M 194.5,-0.5 C 194.833,-0.5 195.167,-0.5 195.5,-0.5C 195.5,6.83333 195.5,14.1667 195.5,21.5C 236.167,21.5 276.833,21.5 317.5,21.5C 317.5,21.8333 317.5,22.1667 317.5,22.5C 276.5,22.5 235.5,22.5 194.5,22.5C 194.5,14.8333 194.5,7.16667 194.5,-0.5 Z"/></g>
<g><path style="opacity:1" fill="#fefdfc" d="M -0.5,23.5 C 50.8333,23.5 102.167,23.5 153.5,23.5C 153.5,58.5 153.5,93.5 153.5,128.5C 148.833,128.5 144.167,128.5 139.5,128.5C 139.5,98.1667 139.5,67.8333 139.5,37.5C 92.8333,37.5 46.1667,37.5 -0.5,37.5C -0.5,32.8333 -0.5,28.1667 -0.5,23.5 Z"/></g>
<g><path style="opacity:1" fill="#eedaf9" d="M -0.5,23.5 C -0.5,23.1667 -0.5,22.8333 -0.5,22.5C 51.1667,22.5 102.833,22.5 154.5,22.5C 154.5,57.8333 154.5,93.1667 154.5,128.5C 154.167,128.5 153.833,128.5 153.5,128.5C 153.5,93.5 153.5,58.5 153.5,23.5C 102.167,23.5 50.8333,23.5 -0.5,23.5 Z"/></g>
<g><path style="opacity:1" fill="#e2ceed" d="M 317.5,36.5 C 317.5,36.8333 317.5,37.1667 317.5,37.5C 276.663,37.1681 235.997,37.5014 195.5,38.5C 194.508,45.9818 194.175,53.6484 194.5,61.5C 194.167,61.5 193.833,61.5 193.5,61.5C 193.184,53.2476 193.518,45.081 194.5,37C 235.499,36.5 276.499,36.3333 317.5,36.5 Z"/></g>
<g><path style="opacity:1" fill="#f3d06d" d="M -0.5,38.5 C -0.5,38.1667 -0.5,37.8333 -0.5,37.5C 46.1667,37.5 92.8333,37.5 139.5,37.5C 139.5,67.8333 139.5,98.1667 139.5,128.5C 139.167,128.5 138.833,128.5 138.5,128.5C 138.5,98.5 138.5,68.5 138.5,38.5C 92.1667,38.5 45.8333,38.5 -0.5,38.5 Z"/></g>
<g><path style="opacity:1" fill="#ecb61f" d="M -0.5,38.5 C 45.8333,38.5 92.1667,38.5 138.5,38.5C 138.5,68.5 138.5,98.5 138.5,128.5C 130.833,128.5 123.167,128.5 115.5,128.5C 115.827,106.258 115.494,84.0914 114.5,62C 76.1681,61.5 37.8348,61.3333 -0.5,61.5C -0.5,53.8333 -0.5,46.1667 -0.5,38.5 Z"/></g>
<g><path style="opacity:1" fill="#7c21ad" d="M 317.5,37.5 C 317.5,45.1667 317.5,52.8333 317.5,60.5C 276.833,60.5 236.167,60.5 195.5,60.5C 195.5,53.1667 195.5,45.8333 195.5,38.5C 235.997,37.5014 276.663,37.1681 317.5,37.5 Z"/></g>
<g><path style="opacity:1" fill="#9d58c2" d="M 195.5,38.5 C 195.5,45.8333 195.5,53.1667 195.5,60.5C 236.167,60.5 276.833,60.5 317.5,60.5C 317.5,61.1667 317.5,61.8333 317.5,62.5C 276.33,62.832 235.33,62.4986 194.5,61.5C 194.175,53.6484 194.508,45.9818 195.5,38.5 Z"/></g>
<g><path style="opacity:1" fill="#fbe8ba" d="M -0.5,61.5 C 37.8348,61.3333 76.1681,61.5 114.5,62C 115.494,84.0914 115.827,106.258 115.5,128.5C 115.167,128.5 114.833,128.5 114.5,128.5C 114.5,106.833 114.5,85.1667 114.5,63.5C 76.1667,63.5 37.8333,63.5 -0.5,63.5C -0.5,62.8333 -0.5,62.1667 -0.5,61.5 Z"/></g>
<g><path style="opacity:1" fill="#eee3f5" d="M 193.5,61.5 C 193.833,61.5 194.167,61.5 194.5,61.5C 235.33,62.4986 276.33,62.832 317.5,62.5C 317.5,62.8333 317.5,63.1667 317.5,63.5C 275.82,64.1611 234.487,63.4944 193.5,61.5 Z"/></g>
<g><path style="opacity:1" fill="#fdfbfd" d="M -0.5,63.5 C 37.8333,63.5 76.1667,63.5 114.5,63.5C 114.5,85.1667 114.5,106.833 114.5,128.5C 109.5,128.5 104.5,128.5 99.5,128.5C 99.5,111.5 99.5,94.5 99.5,77.5C 66.1667,77.5 32.8333,77.5 -0.5,77.5C -0.5,72.8333 -0.5,68.1667 -0.5,63.5 Z"/></g>
<g><path style="opacity:1" fill="#efc752" d="M 194.5,77.5 C 235.5,77.5 276.5,77.5 317.5,77.5C 317.5,77.8333 317.5,78.1667 317.5,78.5C 276.833,78.5 236.167,78.5 195.5,78.5C 195.5,86.1667 195.5,93.8333 195.5,101.5C 194.508,93.6841 194.174,85.6841 194.5,77.5 Z"/></g>
<g><path style="opacity:1" fill="#7b1dac" d="M -0.5,78.5 C 32.5,78.5 65.5,78.5 98.5,78.5C 98.5,95.1667 98.5,111.833 98.5,128.5C 90.8333,128.5 83.1667,128.5 75.5,128.5C 75.5,119.5 75.5,110.5 75.5,101.5C 50.1667,101.5 24.8333,101.5 -0.5,101.5C -0.5,93.8333 -0.5,86.1667 -0.5,78.5 Z"/></g>
<g><path style="opacity:1" fill="#ecb61f" d="M 317.5,78.5 C 317.5,86.1667 317.5,93.8333 317.5,101.5C 276.833,101.5 236.167,101.5 195.5,101.5C 195.5,93.8333 195.5,86.1667 195.5,78.5C 236.167,78.5 276.833,78.5 317.5,78.5 Z"/></g>
<g><path style="opacity:1" fill="#a260c5" d="M -0.5,78.5 C -0.5,78.1667 -0.5,77.8333 -0.5,77.5C 32.8333,77.5 66.1667,77.5 99.5,77.5C 99.5,94.5 99.5,111.5 99.5,128.5C 99.1667,128.5 98.8333,128.5 98.5,128.5C 98.5,111.833 98.5,95.1667 98.5,78.5C 65.5,78.5 32.5,78.5 -0.5,78.5 Z"/></g>
<g><path style="opacity:1" fill="#c8a1dd" d="M -0.5,102.5 C -0.5,102.167 -0.5,101.833 -0.5,101.5C 24.8333,101.5 50.1667,101.5 75.5,101.5C 75.5,110.5 75.5,119.5 75.5,128.5C 75.1667,128.5 74.8333,128.5 74.5,128.5C 74.5,119.833 74.5,111.167 74.5,102.5C 49.5,102.5 24.5,102.5 -0.5,102.5 Z"/></g>
<g><path style="opacity:1" fill="#fbefcd" d="M 194.5,77.5 C 194.174,85.6841 194.508,93.6841 195.5,101.5C 236.167,101.5 276.833,101.5 317.5,101.5C 317.5,102.167 317.5,102.833 317.5,103.5C 276.167,103.5 234.833,103.5 193.5,103.5C 193.174,94.6506 193.507,85.9839 194.5,77.5 Z"/></g>
<g><path style="opacity:1" fill="#faf8fa" d="M -0.5,102.5 C 24.5,102.5 49.5,102.5 74.5,102.5C 74.5,111.167 74.5,119.833 74.5,128.5C 69.5,128.5 64.5,128.5 59.5,128.5C 59.5,124.833 59.5,121.167 59.5,117.5C 39.5,117.5 19.5,117.5 -0.5,117.5C -0.5,112.5 -0.5,107.5 -0.5,102.5 Z"/></g>
<g><path style="opacity:1" fill="#4e2d5d" d="M -0.5,118.5 C -0.5,118.167 -0.5,117.833 -0.5,117.5C 19.5,117.5 39.5,117.5 59.5,117.5C 59.5,121.167 59.5,124.833 59.5,128.5C 59.1667,128.5 58.8333,128.5 58.5,128.5C 58.5,125.167 58.5,121.833 58.5,118.5C 38.8333,118.5 19.1667,118.5 -0.5,118.5 Z"/></g>
<g><path style="opacity:1" fill="#b964e5" d="M 317.5,117.5 C 317.5,117.833 317.5,118.167 317.5,118.5C 276.833,118.5 236.167,118.5 195.5,118.5C 195.5,121.833 195.5,125.167 195.5,128.5C 195.167,128.5 194.833,128.5 194.5,128.5C 194.5,124.833 194.5,121.167 194.5,117.5C 235.5,117.5 276.5,117.5 317.5,117.5 Z"/></g>
<g><path style="opacity:1" fill="#2f0840" d="M -0.5,118.5 C 19.1667,118.5 38.8333,118.5 58.5,118.5C 58.5,121.833 58.5,125.167 58.5,128.5C 38.8333,128.5 19.1667,128.5 -0.5,128.5C -0.5,125.167 -0.5,121.833 -0.5,118.5 Z"/></g>
<g><path style="opacity:1" fill="#ad49e1" d="M 317.5,118.5 C 317.5,121.833 317.5,125.167 317.5,128.5C 276.833,128.5 236.167,128.5 195.5,128.5C 195.5,125.167 195.5,121.833 195.5,118.5C 236.167,118.5 276.833,118.5 317.5,118.5 Z"/></g>
</svg>
